<?xml version="1.0" encoding="utf-8"?>
<!-- Generator: Adobe Illustrator 27.6.1, SVG Export Plug-In . SVG Version: 6.00 Build 0)  -->
<svg version="1.1" id="Layer_1" xmlns="http://www.w3.org/2000/svg" xmlns:xlink="http://www.w3.org/1999/xlink" x="0px" y="0px"
	 viewBox="0 0 2000 2000" style="enable-background:new 0 0 2000 2000;" xml:space="preserve">
<style type="text/css">
	.st0{fill:#2AAC97;}
	.st1{fill:#5087C7;}
	.st2{fill:#333F6C;}
	.st3{fill:#ED1A3B;}
	.st4{fill:#A61E5E;}
	.st5{fill:#345B88;}
	.st6{fill:#5C2D91;}
</style>
<g>
	<g>
		<path class="st0" d="M799.26862,1287.7782c-5.02698-12.45544-9.55927-24.98596-13.69934-37.5625
			c-228.82507,3.84546-447.47528-124.19006-551.22888-339.60461C57.41235,1075.25-9.37246,1337.97424,86.47711,1575.46082
			c124.18398,307.69067,474.28729,456.45251,781.9787,332.26831c135.56256-54.71301,240.25061-153.29199,304.36267-272.76379
			C1008.92108,1582.27173,868.73956,1459.90637,799.26862,1287.7782z"/>
	</g>
	<path class="st1" d="M1346.16418,462.10178c74.79773,227.22098,6.08667,471.28281-161.56262,627.28711
		c5.71582,11.86768,11.12158,23.97131,16.12244,36.36182c69.47095,172.12817,53.49902,357.51721-27.90552,509.2146
		c129.07959,41.49963,272.86584,39.79431,408.42834-14.9187c307.6908-124.18408,456.45264-474.28784,332.26868-781.97852
		C1817.74268,600.77185,1587.59546,458.04459,1346.16418,462.10178z"/>
	<path class="st2" d="M1200.724,1125.75073c-5.00085-12.3905-10.40662-24.49414-16.12244-36.36182
		c-52.30249,48.66956-114.20093,88.79431-184.40491,117.12866c-70.39502,28.41138-143.00598,42.49438-214.62738,43.69812
		c4.14008,12.57654,8.67236,25.10706,13.69934,37.5625c69.47095,172.12817,209.65247,294.49353,373.54987,347.18713
		C1254.22302,1483.26794,1270.19495,1297.87891,1200.724,1125.75073z"/>
	<path class="st3" d="M827.17462,778.56342c64.11157-119.47168,168.79962-218.0506,304.36212-272.76361
		c70.39502-28.41144,143.0061-42.49432,214.62744-43.69803c-4.14001-12.5766-8.67236-25.10724-13.69934-37.56259
		C1208.28088,116.84845,858.17755-31.91323,550.48669,92.27081S94.03397,566.55847,218.21796,874.24921
		c5.00082,12.39056,10.40659,24.4942,16.12245,36.36188c52.30293-48.6698,114.20091-88.79431,184.40535-117.12885
		C554.30829,738.76923,698.09448,737.06384,827.17462,778.56342z"/>
	<path class="st4" d="M785.56927,1250.2157c-53.07361-161.22668-33.90948-330.9317,41.60535-471.65228
		c-129.08014-41.49957-272.86633-39.79419-408.42886,14.91882c-70.20444,28.33453-132.10242,68.45905-184.40535,117.12885
		C338.09399,1126.02563,556.7442,1254.06116,785.56927,1250.2157z"/>
	<path class="st5" d="M827.17462,778.56342c152.099,48.90039,283.73663,157.82874,357.42694,310.8255
		c167.64929-156.00433,236.36035-400.06616,161.56262-627.28711c-71.62134,1.2037-144.23242,15.28659-214.62744,43.69803
		C995.97424,560.51282,891.28619,659.09174,827.17462,778.56342z"/>
	<path class="st6" d="M827.17462,778.56342c-75.51483,140.72058-94.67896,310.4256-41.60535,471.65228
		c71.6214-1.20374,144.23236-15.28674,214.62738-43.69812c70.20398-28.33435,132.10242-68.45911,184.40491-117.12866
		C1110.91125,936.39215,979.27362,827.46381,827.17462,778.56342z"/>
</g>
</svg>
